<svg height='100px' width='100px'  fill="#FFFFFF" xmlns="http://www.w3.org/2000/svg" data-name="Layer 1" viewBox="0 0 128 128" x="0px" y="0px"><title>Miscellaneous 26 final</title><path d="M101.85,75.18c-.36.5-.71,1-1.06,1.51a16.12,16.12,0,0,0-1.61,3,2.05,2.05,0,0,0,.26,2,2,2,0,0,0,1.85.78l5.82-.76-2.55,8.09a2.05,2.05,0,0,0,.16,1.59,2,2,0,0,0,1.24,1l4.91,1.32L108.21,98a2,2,0,0,0-.14,1.81,2,2,0,0,0,1.36,1.2,14,14,0,0,0,3.54.45c8.27,0,15-7.06,15-15.75a15.27,15.27,0,0,0-2.47-7.86c-.47-.74-1-1.5-1.48-2.27-1.8-2.72-3.66-5.52-4-8.39l0-.11c-.09-.75-.17-1.46-.23-2.12h.14a2,2,0,1,0,0-4H106.12a2,2,0,1,0,0,4h0a19.72,19.72,0,0,1-.37,2.64C105.19,70.47,103.57,72.75,101.85,75.18Zm7.85-6.67a29.06,29.06,0,0,0,.49-3.51h5.54c.06.82.16,1.69.27,2.62l0,.13c.5,3.82,2.72,7.17,4.68,10.12.48.73,1,1.46,1.39,2.14A11.08,11.08,0,0,1,124,85.75c0,6.35-4.78,11.54-10.71,11.7l2.42-4a2,2,0,0,0-1.19-3L109,89l2.87-9.11a2.08,2.08,0,0,0-.37-1.91,2,2,0,0,0-1.8-.71l-4.86.64c.09-.11.17-.23.25-.35C107,74.88,108.92,72.14,109.7,68.51Z"></path><path d="M8,67.23c-.37,2.87-2.23,5.67-4,8.39-.51.77-1,1.53-1.48,2.27A15.27,15.27,0,0,0,0,85.75c0,8.69,6.73,15.75,15,15.75a14,14,0,0,0,3.54-.45,2,2,0,0,0,1.36-1.2A2,2,0,0,0,19.79,98l-2.66-4.39L22,92.33a2,2,0,0,0,1.24-1,2.05,2.05,0,0,0,.16-1.59l-2.55-8.09,5.82.76a2,2,0,0,0,1.85-.78,2.05,2.05,0,0,0,.26-2,16.12,16.12,0,0,0-1.61-3c-.35-.51-.7-1-1.06-1.51-1.72-2.43-3.34-4.71-4-7.54A19.72,19.72,0,0,1,21.83,65h0a2,2,0,1,0,0-4H8.12a2,2,0,1,0,0,4h.14c-.06.66-.14,1.37-.23,2.12Zm4,.52,0-.13c.11-.93.21-1.8.27-2.62h5.54a29.06,29.06,0,0,0,.49,3.51c.78,3.63,2.72,6.37,4.6,9,.08.12.16.24.25.35l-4.86-.64a2,2,0,0,0-1.8.71,2.08,2.08,0,0,0-.37,1.91L19,89l-5.48,1.47a2,2,0,0,0-1.19,3l2.42,4C8.81,97.29,4,92.1,4,85.75A11.08,11.08,0,0,1,5.91,80c.43-.68.91-1.41,1.39-2.14C9.26,74.92,11.48,71.57,12,67.75Z"></path><path d="M126,25.75H2a2,2,0,0,0,0,4H12v23.5H4a2,2,0,0,0,0,4H24a2,2,0,1,0,0-4H16V29.75H62v13.5H54a2,2,0,0,0,0,4H74a2,2,0,0,0,0-4H66V29.75h46V53h-8a2,2,0,0,0,0,4h20a2,2,0,0,0,0-4h-8V29.75h10a2,2,0,0,0,0-4Z"></path><path d="M52.88,66.18l-.65.91-.36.51-.09.12A16.08,16.08,0,0,0,50,71.14a2,2,0,0,0,.46,2.13l6.4,6.4a2,2,0,0,0,2.83,0l5.92-5.92,3.68,3.67a2,2,0,0,0,2.83,0l4.81-4.81a2,2,0,0,0,.38-2.31c-.23-.47-.49-.91-.78-1.39s-.57-.88-.87-1.34L75,66.62c-1.79-2.67-3.64-5.44-4-8.25v-.11c-.14-1.1-.24-2.11-.3-3a2,2,0,0,0-.2-4h-13a2,2,0,0,0-.22,4,24.88,24.88,0,0,1-.45,3.55C56.19,61.55,54.58,63.8,52.88,66.18Zm7.83-6.56a28.43,28.43,0,0,0,.52-3.88l5.47,0c.07.93.18,1.95.31,3l0,.12c.5,3.76,2.71,7.06,4.66,10l.61.92.7,1.08-2.32,2.32L67,69.5a2,2,0,0,0-2.83,0l-5.92,5.92-4-4a12.21,12.21,0,0,1,.84-1.4l.08-.12.32-.45.66-.92C58,65.9,59.92,63.21,60.7,59.63Z"></path><path d="M64,102.25c8.27,0,15-7,15-15.57a13.65,13.65,0,0,0-1.72-6.42,2,2,0,0,0-3.19-.49l-3.4,3.4L67,79.5a2,2,0,0,0-2.83,0l-5.92,5.92-5-5a2,2,0,0,0-3.28.7,15.49,15.49,0,0,0-1,5.54C49,95.27,55.7,102.25,64,102.25ZM53,85.83l3.84,3.84a2,2,0,0,0,2.83,0l5.92-5.92,3.68,3.67a2,2,0,0,0,2.83,0l2.65-2.65A8.14,8.14,0,0,1,75,86.68C75,93.06,70,98.25,64,98.25S53,93.06,53,86.68C53,86.39,53,86.11,53,85.83Z"></path><path d="M46.41,70.59l-4-4a2,2,0,0,0-2.83,2.83l4,4a2,2,0,0,0,2.83-2.83Z"></path><path d="M43.59,78.59l-4,4a2,2,0,1,0,2.83,2.83l4-4a2,2,0,0,0-2.83-2.83Z"></path><path d="M34,76a2,2,0,0,0,2,2h4a2,2,0,0,0,0-4H36A2,2,0,0,0,34,76Z"></path><path d="M81.59,81.41l4,4a2,2,0,0,0,2.83-2.83l-4-4a2,2,0,0,0-2.83,2.83Z"></path><path d="M85.59,66.59l-4,4a2,2,0,1,0,2.83,2.83l4-4a2,2,0,0,0-2.83-2.83Z"></path><path d="M86,76a2,2,0,0,0,2,2h4a2,2,0,0,0,0-4H88A2,2,0,0,0,86,76Z"></path></svg>