<svg height='100px' width='100px'  fill="#FFFFFF" xmlns="http://www.w3.org/2000/svg" data-name="Layer 1" viewBox="0 0 128 128" x="0px" y="0px"><title>Miscellaneous 46 solid</title><path d="M117.49,99.55c-10.41,1.49-32.94,3.63-33.17,3.65a2,2,0,1,0,.38,4c.23,0,22.85-2.17,33.36-3.67,1.88-.27,2.83.15,2.94.29s-.34,1.25-2.52,2.73c-8.74,6-24.82,12.14-28.5,13.19-9.59,2.75-17.59,3.07-24.44,1a91.28,91.28,0,0,1-12.49-5.28c-5-2.41-10.16-4.9-15.74-6.23a14.12,14.12,0,0,0-8.85.39l-.13.06-.33.17V91.57l8.84-2.38c.1,0,10.72-2.94,20.68,2,1.42.71,2.87,1.4,4.32,2.09,3.33,1.59,6.78,3.24,9.87,5.1,2.83,1.71,3.6,3,3.75,3.7a2.22,2.22,0,0,1-.62,1.87c-.64.85-3.87,1.12-15.58-2.46-1.51-.46-2.71-.83-3.52-1a2,2,0,1,0-.88,3.87c.66.15,1.85.51,3.22.93,8.89,2.72,17.11,4.84,20,1a6.15,6.15,0,0,0,1.34-5c-.59-3-3.48-5.05-5.6-6.33-3.26-2-6.79-3.65-10.21-5.28-1.43-.68-2.86-1.37-4.26-2.06C47.92,82,36.23,85.24,35.77,85.37l-8.33,2.24a10.33,10.33,0,0,0-9.78-6.25H2a2,2,0,0,0-2,2l.35,35.71a2,2,0,0,0,2,2h15.3a10.28,10.28,0,0,0,9.91-6.6l2.52-1.28a10.66,10.66,0,0,1,6.3-.17c5.15,1.23,9.9,3.52,14.92,5.94a94.22,94.22,0,0,0,13.05,5.5A36.44,36.44,0,0,0,75.14,126a58,58,0,0,0,15.95-2.49c3.82-1.1,20.54-7.52,29.65-13.74,4.92-3.35,4.43-6.31,4-7.43C123.85,100.11,121.08,99,117.49,99.55Z"></path><path d="M92,84.34a2,2,0,0,0,2-2V71.45a6,6,0,0,0-6-6H72V54.8a13,13,0,0,1-4,2.12v8.57H62V57.39a13,13,0,0,1-4-1.3v9.4H42a6,6,0,0,0-6,6v6.94a2,2,0,0,0,4,0V71.45a2,2,0,0,1,2-2H88a2,2,0,0,1,2,2V82.36A2,2,0,0,0,92,84.34Z"></path><path d="M64,53.59a8.93,8.93,0,1,0-9-8.93A9,9,0,0,0,64,53.59Zm0-10.91a2,2,0,1,1-2,2A2,2,0,0,1,64,42.68Z"></path><path d="M1.24,43A2,2,0,0,0,2,44.28a2,2,0,0,0,1.18.38l.33,0,15.19-2.5.64,4.15A5.94,5.94,0,0,0,22,57.56a6.06,6.06,0,0,0,.94-.07,6,6,0,0,0,3.92-2.37A5.88,5.88,0,0,0,28,52.27l23.58-4A12.75,12.75,0,0,1,51,44.66c0-.1,0-.2,0-.31l-24,4a5.94,5.94,0,0,0-1.51-1.61,6,6,0,0,0-2.18-1l-.67-4.32,15.64-2.57A2,2,0,0,0,40,36.66L38.76,28.5a2,2,0,0,0-2.31-1.67l-12,2a10.81,10.81,0,0,0,2.54-7,11,11,0,1,0-16.73,9.3L1.67,32.55A2,2,0,0,0,0,34.8Zm21.94,7a2,2,0,0,1,.44,2.77,2,2,0,0,1-1.31.79,2,2,0,0,1-1.49-.36,2,2,0,0,1-.44-2.77,2,2,0,0,1,1.31-.79l.31,0A2,2,0,0,1,23.18,50ZM9,21.84a7,7,0,1,1,7,6.94A7,7,0,0,1,9,21.84Z"></path><path d="M128,21.78l-1.22-8.17a2,2,0,0,0-2.31-1.67l-10.39,1.71A7.83,7.83,0,0,0,115,9.94a8,8,0,0,0-16,0,7.88,7.88,0,0,0,2.54,5.78l-11.86,2A2,2,0,0,0,88,19.92l1.22,8.17A2,2,0,0,0,90,29.4a2,2,0,0,0,1.18.38l.33,0,15.82-2.6.74,4.38a5.86,5.86,0,0,0-2.9,3.67L76.15,40.11A12.7,12.7,0,0,1,77,44l28.59-4.83a5.9,5.9,0,0,0,1.91,2.36A6,6,0,0,0,111,42.68a6.06,6.06,0,0,0,.94-.07,6,6,0,0,0,3.92-2.37,5.92,5.92,0,0,0-1.31-8.32A6,6,0,0,0,112,30.86l-.73-4.36,15-2.47A2,2,0,0,0,128,21.78ZM107,13.9a4,4,0,1,1,4-4A4,4,0,0,1,107,13.9Zm5.18,21.22a2,2,0,0,1,.44,2.77,2,2,0,0,1-1.31.79,2,2,0,0,1-1.49-.36,2,2,0,0,1-.44-2.77,2,2,0,0,1,1.31-.79l.31,0A2,2,0,0,1,112.18,35.12Z"></path><path d="M50,75.41a2,2,0,1,0,0,4H80a2,2,0,1,0,0-4Z"></path></svg>