<svg height='100px' width='100px'  fill="#FFFFFF" xmlns="http://www.w3.org/2000/svg" xmlns:xlink="http://www.w3.org/1999/xlink" version="1.1" x="0px" y="0px" viewBox="0 0 64 64" style="enable-background:new 0 0 64 64;" xml:space="preserve"><path d="M29,37h-4c-0.552,0-1,0.447-1,1v6.867c0,0.35-0.187,0.679-0.486,0.858l-3.332,1.999C20.696,46.939,21,46.006,21,45  c0-2.757-2.243-5-5-5s-5,2.243-5,5c0,1.006,0.304,1.939,0.818,2.724l-3.331-1.999C8.187,45.546,8,45.217,8,44.867V38  c0-0.553-0.448-1-1-1H3c-0.552,0-1,0.447-1,1v8.783c0,1.735,0.878,3.32,2.281,4.192L9,54.501V62h2v-8  c0-0.315-0.149-0.612-0.401-0.801L5.41,49.327C4.527,48.775,4,47.824,4,46.783V39h2v5.867c0,1.047,0.558,2.033,1.457,2.573  l4.029,2.417C11.641,49.951,11.819,50,12,50h8c0.181,0,0.359-0.049,0.515-0.143l4.029-2.417C25.442,46.9,26,45.914,26,44.867V39h2  v7.783c0,1.041-0.527,1.992-1.479,2.591l-5.12,3.825C21.149,53.388,21,53.685,21,54v8h2v-7.499l4.65-3.479  c1.472-0.919,2.35-2.504,2.35-4.239V38C30,37.447,29.552,37,29,37z M16,42c1.654,0,3,1.346,3,3s-1.346,3-3,3s-3-1.346-3-3  S14.346,42,16,42z"></path><path d="M61,37h-4c-0.552,0-1,0.447-1,1v6.867c0,0.35-0.187,0.679-0.486,0.858l-3.332,1.999C52.696,46.939,53,46.006,53,45  c0-2.757-2.243-5-5-5s-5,2.243-5,5c0,1.006,0.304,1.939,0.818,2.724l-3.331-1.999c-0.3-0.18-0.486-0.509-0.486-0.858V38  c0-0.553-0.448-1-1-1h-4c-0.552,0-1,0.447-1,1v8.783c0,1.735,0.878,3.32,2.281,4.192L41,54.501V62h2v-8  c0-0.315-0.149-0.612-0.401-0.801l-5.189-3.872C36.527,48.775,36,47.824,36,46.783V39h2v5.867c0,1.047,0.558,2.033,1.457,2.573  l4.029,2.417C43.641,49.951,43.819,50,44,50h8c0.181,0,0.359-0.049,0.515-0.143l4.029-2.417C57.442,46.9,58,45.914,58,44.867V39h2  v7.783c0,1.041-0.527,1.992-1.479,2.591l-5.12,3.825C53.149,53.388,53,53.685,53,54v8h2v-7.499l4.65-3.479  c1.472-0.919,2.35-2.504,2.35-4.239V38C62,37.447,61.552,37,61,37z M48,42c1.654,0,3,1.346,3,3s-1.346,3-3,3s-3-1.346-3-3  S46.346,42,48,42z"></path><path d="M31.615,11.935c-1.279-1.242-3.36-1.242-4.639,0C26.347,12.545,26,13.358,26,14.227s0.347,1.682,0.976,2.292l4.328,4.199  C31.498,20.906,31.749,21,32,21s0.502-0.094,0.696-0.282l4.328-4.199C37.653,15.908,38,15.095,38,14.227s-0.347-1.682-0.976-2.292  c-1.28-1.243-3.361-1.242-4.639,0L32,12.309L31.615,11.935z M32.696,14.42l1.082-1.05h0c0.511-0.496,1.342-0.496,1.853,0  C35.869,13.601,36,13.904,36,14.227s-0.131,0.626-0.369,0.856L32,18.606l-3.631-3.523C28.131,14.853,28,14.549,28,14.227  s0.131-0.626,0.369-0.856c0.255-0.248,0.59-0.372,0.926-0.372s0.671,0.124,0.927,0.372l1.082,1.05  C31.691,14.797,32.309,14.797,32.696,14.42z"></path><path d="M16,28h32c0.552,0,1-0.447,1-1V3c0-0.553-0.448-1-1-1H16c-0.552,0-1,0.447-1,1v24C15,27.553,15.448,28,16,28z M17,26v-2  h10.67c1.312,0.634,2.777,1,4.33,1s3.018-0.366,4.33-1H47v2H17z M40.647,20H47v2h-7.871C39.716,21.402,40.224,20.729,40.647,20z   M41.539,18c0.202-0.642,0.342-1.31,0.411-2H47v2H41.539z M41.949,14c-0.069-0.696-0.212-1.37-0.417-2.017L47,11.997V14H41.949z   M47,9.997L40.635,9.98C40.214,9.259,39.711,8.592,39.129,8H47V9.997z M40,15c0,4.411-3.589,8-8,8s-8-3.589-8-8s3.589-8,8-8  S40,10.589,40,15z M23.353,10H17V8h7.871C24.284,8.598,23.776,9.271,23.353,10z M22.461,12c-0.202,0.642-0.342,1.31-0.411,2H17v-2  H22.461z M22.051,16c0.069,0.69,0.208,1.358,0.411,2H17v-2H22.051z M23.353,20c0.423,0.729,0.931,1.402,1.518,2H17v-2H23.353z M47,4  v2H36.33C35.018,5.366,33.553,5,32,5s-3.018,0.366-4.33,1H17V4H47z"></path><rect x="8" y="27" width="2" height="2"></rect><rect x="8" y="31" width="2" height="2"></rect><rect x="10" y="29" width="2" height="2"></rect><rect x="6" y="29" width="2" height="2"></rect><rect x="56" y="24" width="2" height="2"></rect><rect x="56" y="28" width="2" height="2"></rect><rect x="58" y="26" width="2" height="2"></rect><rect x="54" y="26" width="2" height="2"></rect></svg>