<svg height='100px' width='100px'  fill="#FFFFFF" xmlns="http://www.w3.org/2000/svg" data-name="Layer 1" viewBox="0 0 128 128" x="0px" y="0px"><title>Miscellaneous 52 solid</title><path d="M2.92816,76.02441a8.52524,8.52524,0,0,0,5.5293,1.97565,9.25406,9.25406,0,0,0,6.3866-2.55029l10.6181-10.2016a1.71659,1.71659,0,0,0,0-2.49628L14.84406,52.55035a9.255,9.255,0,0,0-6.3866-2.55029,8.52425,8.52425,0,0,0-5.5293,1.97565,8.02,8.02,0,0,0-.41663,12.02435A8.02,8.02,0,0,0,2.92816,76.02441Z"></path><path d="M125.07184,51.97571a8.52368,8.52368,0,0,0-5.5293-1.97565,9.25538,9.25538,0,0,0-6.3866,2.55029l-10.6181,10.20154a1.71659,1.71659,0,0,0,0,2.49628l10.6181,10.2016a9.25406,9.25406,0,0,0,6.3866,2.55029,8.52512,8.52512,0,0,0,5.5293-1.97565,8.02,8.02,0,0,0,.41663-12.02435A8.02,8.02,0,0,0,125.07184,51.97571Z"></path><path d="M69.82452.00006A8.04979,8.04979,0,0,0,64,2.51117a8.01977,8.01977,0,0,0-12.02429.41663,9.031,9.031,0,0,0,.57465,11.916L62.75189,25.46191a1.71649,1.71649,0,0,0,2.49628,0L75.44965,14.84375a9.03092,9.03092,0,0,0,.57465-11.91589A8.081,8.081,0,0,0,69.82452.00006Z"></path><path d="M51.97571,125.07227A8.01965,8.01965,0,0,0,64,125.48889a8.01965,8.01965,0,0,0,12.02429-.41663,9.031,9.031,0,0,0-.57465-11.916L65.24817,102.53815a1.71663,1.71663,0,0,0-2.49628,0L52.55035,113.15631A9.031,9.031,0,0,0,51.97571,125.07227Z"></path><path d="M127.54,16.16a1.9888,1.9888,0,0,0-2.81-.27l-5.81,4.79a6.51276,6.51276,0,0,0-.71-.88l-9.32-9.75q-.3-.3-.63-.57l5.93-6.08A2.00123,2.00123,0,0,0,111.33.6L104.1,8.02a6.68287,6.68287,0,0,0-4.54,1.66l-.38.33a6.3381,6.3381,0,0,0-2.17,4.52,6.223,6.223,0,0,0,.01.75l-4.13,4.24c-12.07,1.25-17,8.04-17.2,8.33a2.00937,2.00937,0,0,0-.33.73A7.64621,7.64621,0,0,0,75.27,30.89l-6.1,5.61A3.82509,3.82509,0,0,0,68,38.97a5.34869,5.34869,0,0,0,4.23,5.84,6.2451,6.2451,0,0,0,2.24,3.89,6.7437,6.7437,0,0,0,4.34,1.31,6.28861,6.28861,0,0,0,3.15,2.75,6.94934,6.94934,0,0,0,3.72.29,4.90269,4.90269,0,0,0,1.94,2.24,5.10539,5.10539,0,0,0,2.67.71,6.892,6.892,0,0,0,2.34-.42,2.11108,2.11108,0,0,0,.69-.45l11.86-11.9a3.77316,3.77316,0,0,0,1.14-2.36l.4-4.94,6-4.95c.09,0,.17.01.26.01a6.709,6.709,0,0,0,4.46-1.67l.38-.33a6.29989,6.29989,0,0,0,2.12-3.97l7.33-6.05A1.9888,1.9888,0,0,0,127.54,16.16ZM103.96,33.02a.50009.50009,0,0,1-.08.07,3.76171,3.76171,0,0,0-1.13,2.37l-.41,4.96-4.58,4.59c-.57-.73-2.55-3.01-4.94-3.13a3.83368,3.83368,0,0,0-3.04,1.26l-.87006.85a2.00115,2.00115,0,0,0,2.81,2.85l.89-.87.08-.08a5.28332,5.28332,0,0,1,1.98,1.66,2.49918,2.49918,0,0,0,.27.29l-4.09,4.1a1.82885,1.82885,0,0,1-1.16-.07,2.17726,2.17726,0,0,1-.63-1.57,1.99375,1.99375,0,0,0-1.04-1.55,2.02519,2.02519,0,0,0-1.87-.01,3.98155,3.98155,0,0,1-2.76.28,2.84967,2.84967,0,0,1-1.52-1.85,2.00543,2.00543,0,0,0-2.35-1.24,3.70689,3.70689,0,0,1-2.59-.39,3.15159,3.15159,0,0,1-.87-2.57A2.01751,2.01751,0,0,0,73.92,41a2.33966,2.33966,0,0,1-1.54-.46,1.65519,1.65519,0,0,1-.38-1.2l4.33-3.99a39.30168,39.30168,0,0,0,2.24,5.04,4.61682,4.61682,0,0,0,4.05,2.4,4.22179,4.22179,0,0,0,1.49-.27c1.35-.52,2.97-1.84,3.07-5.21.02-.72.04-1.74.02-2.71.41.04.81.07,1.2.07A12.87945,12.87945,0,0,0,95.72,32.26a2.00331,2.00331,0,0,0-2.45-3.17,8.1323,8.1323,0,0,1-8.95.36,2.004,2.004,0,0,0-2.09,3.42c.3.18.59.34.89.49a29.62021,29.62021,0,0,1,.06,3.83c-.01.43-.08,1.43-.49,1.59a.64021.64021,0,0,1-.58-.24c-1.91-3.64-3-6.97-2.89-8.71,1.07-1.25,5.3-5.43994,14.17-6.34a4.03372,4.03372,0,0,0,2.17-.98l.08-.08,3.15-3.23,9.32,9.75c.12.12.24.23.37.34Z"></path><path d="M58.82,36.5l-6.09-5.61A7.64621,7.64621,0,0,0,52.64,28.58a2.00937,2.00937,0,0,0-.33-.73c-.2-.29-5.13-7.08-17.2-8.33l-4.13-4.24a6.223,6.223,0,0,0,.01-.75,6.3381,6.3381,0,0,0-2.17-4.52l-.38-.33A6.68287,6.68287,0,0,0,23.9,8.02L16.67.6a2.00123,2.00123,0,0,0-2.86,2.8l5.93,6.08a6.98137,6.98137,0,0,0-.64.58L9.79,19.8a6.51276,6.51276,0,0,0-.71.88L3.27,15.89A1.99612,1.99612,0,1,0,.73,18.97l7.33,6.05a6.29989,6.29989,0,0,0,2.12,3.97l.38.33a6.69035,6.69035,0,0,0,4.46,1.67c.09,0,.17-.01.26-.01l6,4.95.4,4.91a3.7586,3.7586,0,0,0,1.07,2.33L34.68,55.13a2.11108,2.11108,0,0,0,.69.45,6.892,6.892,0,0,0,2.34.42,5.10539,5.10539,0,0,0,2.67-.71,4.90269,4.90269,0,0,0,1.94-2.24,6.94934,6.94934,0,0,0,3.72-.29,6.28861,6.28861,0,0,0,3.15-2.75,6.75977,6.75977,0,0,0,4.34-1.31,6.2451,6.2451,0,0,0,2.24-3.89,5.33277,5.33277,0,0,0,4.22-5.84A3.73231,3.73231,0,0,0,58.82,36.5Zm-3.2,4.04A2.39359,2.39359,0,0,1,54.1,41a1.98777,1.98777,0,0,0-2.16,1.97,3.17471,3.17471,0,0,1-.86,2.56,3.52272,3.52272,0,0,1-2.6.4,2.00543,2.00543,0,0,0-2.35,1.24,2.89047,2.89047,0,0,1-1.51,1.85,3.98551,3.98551,0,0,1-2.77-.28,2.02519,2.02519,0,0,0-1.87.01,1.99375,1.99375,0,0,0-1.04,1.55,2.1713,2.1713,0,0,1-.62,1.56,1.783,1.783,0,0,1-1.17.08l-4.09-4.1a2.49918,2.49918,0,0,0,.27-.29,5.20963,5.20963,0,0,1,1.98-1.66h.01c.02.03.05.05.07.08l.89.87a2.00115,2.00115,0,0,0,2.81-2.85L38.22,43.14a3.80177,3.80177,0,0,0-3.04-1.26c-2.39.12-4.37,2.4-4.94,3.13l-4.58-4.59-.41-4.93a3.76566,3.76566,0,0,0-1.13-2.4.50009.50009,0,0,1-.08-.07l-4.52-3.73a4.14015,4.14015,0,0,0,.38-.35l9.31-9.74,3.15,3.23.08.08a4.03372,4.03372,0,0,0,2.17.98c8.89.9,13.11,5.1,14.17,6.34.11,1.74005-.98,5.07-2.89,8.7a.63429.63429,0,0,1-.58.25c-.41-.16-.48-1.16-.49-1.59a29.55466,29.55466,0,0,1,.06-3.83c.3-.15.59-.31.89-.49a2.004,2.004,0,0,0-2.09-3.42,8.12677,8.12677,0,0,1-8.95-.36,2.00323,2.00323,0,0,0-2.45,3.17A12.84241,12.84241,0,0,0,39.6,34.67c.39,0,.79-.03,1.2-.07-.02.97,0,1.99.02,2.71.1,3.37,1.72,4.69,3.07,5.21a4.22179,4.22179,0,0,0,1.49.27,4.6286,4.6286,0,0,0,4.05-2.4,39.30168,39.30168,0,0,0,2.24-5.04L56,39.33A1.66569,1.66569,0,0,1,55.62,40.54Z"></path><path d="M60,89.03a5.34868,5.34868,0,0,0-4.23-5.84,6.24474,6.24474,0,0,0-2.24-3.89,6.80293,6.80293,0,0,0-4.34-1.31,6.28861,6.28861,0,0,0-3.15-2.75,6.94873,6.94873,0,0,0-3.72-.29A4.90257,4.90257,0,0,0,40.38,72.71a6.05805,6.05805,0,0,0-5.01-.29,2.11124,2.11124,0,0,0-.69.45L22.82,84.77a3.77316,3.77316,0,0,0-1.14,2.36l-.4,4.94-6,4.95a6.68441,6.68441,0,0,0-4.72,1.66l-.38.33a6.2999,6.2999,0,0,0-2.12,3.97L.73,109.03A1.9996,1.9996,0,0,0,2,112.57a1.96749,1.96749,0,0,0,1.27-.46l5.81-4.79a6.51655,6.51655,0,0,0,.71.88l9.32,9.75q.3.29993.63.56995l-5.93,6.08a1.99489,1.99489,0,0,0,.04,2.83,2.01966,2.01966,0,0,0,2.82-.03l7.22-7.41h.09a6.69035,6.69035,0,0,0,4.46-1.67l.38-.33a6.33823,6.33823,0,0,0,2.17-4.52,6.223,6.223,0,0,0-.01-.75l4.13-4.24c12.07-1.25,17-8.04,17.2-8.33a2.00845,2.00845,0,0,0,.33-.73,7.6458,7.6458,0,0,0,.09-2.31l6.1-5.61A3.82525,3.82525,0,0,0,60,89.03Zm-8.33,3.62a39.29667,39.29667,0,0,0-2.24-5.04,4.58707,4.58707,0,0,0-5.54-2.13c-1.35.52-2.97,1.84-3.07,5.21-.02.72-.04,1.74-.02,2.71a12.70752,12.70752,0,0,0-8.52,2.34,1.98939,1.98939,0,0,0-.35,2.79,1.95493,1.95493,0,0,0,1.58.78,2.04716,2.04716,0,0,0,1.22-.4,8.13223,8.13223,0,0,1,8.95-.36,2.004,2.004,0,0,0,2.09-3.42c-.3-.18-.59-.32-.88-.47a27.13593,27.13593,0,0,1-.07-3.85c.01-.43.08-1.43.49-1.59a.64035.64035,0,0,1,.58.24c1.91,3.64,3,6.97,2.89,8.71-1.07,1.25-5.3,5.44-14.17,6.34a4.03282,4.03282,0,0,0-2.17.98l-.08.08-3.15,3.23-9.32-9.75c-.11-.12-.24-.23-.37-.35l4.52-3.72a.50625.50625,0,0,1,.08-.07,3.76156,3.76156,0,0,0,1.13-2.37l.41-4.96,4.58-4.59c.57.73,2.55,3.01,4.94,3.13h.2a3.81918,3.81918,0,0,0,2.84-1.26l.87006-.85a2.00117,2.00117,0,0,0-2.81-2.85l-.89.87-.08.08a5.28392,5.28392,0,0,1-1.98-1.66,1.85824,1.85824,0,0,0-.27-.29l4.09-4.1a1.82885,1.82885,0,0,1,1.16.07,2.17726,2.17726,0,0,1,.63,1.57,1.99524,1.99524,0,0,0,2.91,1.56,3.98148,3.98148,0,0,1,2.76-.28,2.87513,2.87513,0,0,1,1.52,1.85A2.00546,2.00546,0,0,0,48.48,82.07a3.70673,3.70673,0,0,1,2.59.39,3.15168,3.15168,0,0,1,.87,2.57,2.01357,2.01357,0,0,0,.65,1.44,2.04668,2.04668,0,0,0,1.49.53,2.3392,2.3392,0,0,1,1.54.46A1.6658,1.6658,0,0,1,56,88.67Z"></path><path d="M64,50A14,14,0,1,0,78,64,14.01537,14.01537,0,0,0,64,50Zm0,16a2,2,0,1,1,2-2A2.00591,2.00591,0,0,1,64,66Z"></path><path d="M127.27,109.03l-7.33-6.05a6.2999,6.2999,0,0,0-2.12-3.97l-.38-.33a6.68441,6.68441,0,0,0-4.72-1.66l-6-4.95-.4-4.9a3.76043,3.76043,0,0,0-1.07-2.34L93.32,72.87a2.11124,2.11124,0,0,0-.69-.45,6.05805,6.05805,0,0,0-5.01.29A4.90257,4.90257,0,0,0,85.68,74.95a6.94873,6.94873,0,0,0-3.72.29,6.28861,6.28861,0,0,0-3.15,2.75,6.80293,6.80293,0,0,0-4.34,1.31,6.24474,6.24474,0,0,0-2.24,3.89,5.33276,5.33276,0,0,0-4.22,5.84,3.73246,3.73246,0,0,0,1.17,2.47l6.09,5.61a7.6458,7.6458,0,0,0,.09,2.31,2.00845,2.00845,0,0,0,.33.73c.2.29,5.13,7.08,17.2,8.33l4.13,4.24a6.223,6.223,0,0,0-.01.75,6.33823,6.33823,0,0,0,2.17,4.52l.38.33a6.69035,6.69035,0,0,0,4.46,1.67h.09l7.22,7.41a1.99044,1.99044,0,0,0,1.43.6,1.9685,1.9685,0,0,0,1.39-.57,1.99489,1.99489,0,0,0,.04-2.83l-5.93-6.08a6.9895,6.9895,0,0,0,.64-.58l9.31-9.74a6.51655,6.51655,0,0,0,.71-.88l5.81,4.79a1.96749,1.96749,0,0,0,1.27.46,1.9996,1.9996,0,0,0,1.27-3.54ZM108.1,99.06l-9.31,9.74-3.15-3.23-.08-.08a4.03282,4.03282,0,0,0-2.17-.98c-8.89-.9-13.11-5.1-14.17-6.34-.11-1.74.98-5.07,2.89-8.7a.63443.63443,0,0,1,.58-.25c.41.16.48,1.16.49,1.59a27.13593,27.13593,0,0,1-.07,3.85c-.29.15-.58.29-.88.47a2.004,2.004,0,0,0,2.09,3.42,8.12682,8.12682,0,0,1,8.95.36,2.0032,2.0032,0,0,0,2.45-3.17A12.76737,12.76737,0,0,0,87.2,93.4c.02-.97,0-1.99-.02-2.71-.1-3.37-1.72-4.69-3.07-5.21a4.60271,4.60271,0,0,0-5.54,2.13,39.29667,39.29667,0,0,0-2.24,5.04L72,88.67a1.6658,1.6658,0,0,1,.38-1.21A2.39346,2.39346,0,0,1,73.9,87a1.98777,1.98777,0,0,0,2.16-1.97,3.17471,3.17471,0,0,1,.86-2.56,3.52235,3.52235,0,0,1,2.6-.4A2.00026,2.00026,0,0,0,81.87,80.83a2.89063,2.89063,0,0,1,1.51-1.85,3.96836,3.96836,0,0,1,2.77.28,1.99524,1.99524,0,0,0,2.91-1.56,2.171,2.171,0,0,1,.62-1.56,1.783,1.783,0,0,1,1.17-.08l4.09,4.1a1.85824,1.85824,0,0,0-.27.29,5.21078,5.21078,0,0,1-1.98,1.66h-.01c-.02-.03-.05-.05-.07-.08l-.89-.87a2.00117,2.00117,0,0,0-2.81,2.85l.87006.85a3.81918,3.81918,0,0,0,2.84,1.26h.2c2.39-.12,4.37-2.4,4.94-3.13l4.58,4.59.41,4.93005a3.7655,3.7655,0,0,0,1.13,2.4.50625.50625,0,0,1,.08.07l4.52,3.73A4.14956,4.14956,0,0,0,108.1,99.06Z"></path></svg>