<svg height='100px' width='100px'  fill="#FFFFFF" xmlns:dc="http://purl.org/dc/elements/1.1/" xmlns:cc="http://creativecommons.org/ns#" xmlns:rdf="http://www.w3.org/1999/02/22-rdf-syntax-ns#" xmlns:svg="http://www.w3.org/2000/svg" xmlns="http://www.w3.org/2000/svg" xmlns:sodipodi="http://sodipodi.sourceforge.net/DTD/sodipodi-0.dtd" xmlns:inkscape="http://www.inkscape.org/namespaces/inkscape" viewBox="0 0 48 48.000001" version="1.1" x="0px" y="0px"><g transform="translate(0,-1004.3622)"><g transform="translate(-0.5940372,-0.59471392)"><path transform="translate(0,1004.3622)" d="m 3.6972656,2.6914062 c -0.2513925,0.00181 -0.5047925,0.1023844 -0.7050781,0.3027344 -0.400599,0.4006 -0.4013312,1.0087375 -0.011719,1.3984375 L 6.2597656,7.671875 7.671875,6.2578125 4.3925781,2.9785156 C 4.1980432,2.7849156 3.9486581,2.6895939 3.6972656,2.6914062 Z M 39.560547,3.8691406 35.955078,7.4746094 40.519531,12.056641 44.132812,8.4433594 C 42.608514,6.9190594 41.084835,5.3933406 39.560547,3.8691406 Z M 10.34375,5.9824219 c -0.4340677,0 -0.8694943,0.1702625 -1.2070312,0.5078125 L 6.4902344,9.1367188 c -0.6750812,0.6750998 -0.6750741,1.7371092 0,2.4121092 L 9.5996094,14.658203 14.666016,9.6074219 11.548828,6.4902344 C 11.211291,6.1526844 10.777818,5.9824219 10.34375,5.9824219 Z M 35.248047,8.1816406 24.986328,18.443359 c 0.226573,0.439108 0.341979,0.919072 0.330078,1.402344 L 26.3125,20.841797 37.105469,10.048828 35.248047,8.1816406 Z m -19.732422,2.2753904 -5.068359,5.048828 1.21289,1.212891 5.06836,-5.048828 -1.212891,-1.212891 z m 22.4375,0.441407 -10.792969,10.792968 1.863282,1.861328 L 39.8125,12.763672 37.953125,10.898438 Z m -20.376953,1.61914 -5.066406,5.050781 6.05664,6.056641 c 0.675074,0.6751 1.737029,0.6751 2.41211,0 L 23.625,20.978516 c 0.675074,-0.6751 0.675074,-1.73701 0,-2.41211 l -6.048828,-6.048828 z m 7.373047,8.658203 c -0.128187,0.232237 -0.278115,0.455846 -0.47461,0.652344 l -2.648437,2.646484 c -0.196576,0.196335 -0.419938,0.346497 -0.652344,0.47461 L 37.380859,41.15625 41.164062,37.390625 24.949219,21.175781 Z m -6.507813,3.8125 -1.951172,1.951172 c 0.0966,0.202064 0.186093,0.364704 0.28711,0.601563 a 0.60006002,0.60006002 0 1 1 -1.103516,0.470703 c -0.0296,-0.06941 -0.05291,-0.107962 -0.08203,-0.173828 L 7.4492188,35.980469 9.3085938,37.847656 20.841797,26.314453 19.84375,25.316406 c -0.483087,0.01199 -0.963376,-0.10207 -1.402344,-0.328125 z M 21.689453,27.162109 10.154297,38.697266 12.013672,40.5625 23.550781,29.023438 21.689453,27.162109 Z M 6.75,36.697266 4.0410156,43.962891 11.292969,41.257812 6.75,36.697266 Z m 35.261719,1.541015 -3.78125,3.767578 0.03125,0.03125 6.513672,2.740235 -2.738282,-6.513672 -0.02539,-0.02539 z m 4.484375,7.595703 a 0.60006008,0.60006008 0 0 1 0.002,0.0332 c -6.54e-4,-0.01105 -6.52e-4,-0.02206 -0.002,-0.0332 z m -0.0059,0.177735 a 0.60006008,0.60006008 0 0 1 -0.0078,0.02734 c 0.0023,-0.0094 0.006,-0.01784 0.0078,-0.02734 z m -0.449218,0.470703 a 0.60006008,0.60006008 0 0 1 -0.04492,0.0078 c 0.01519,-0.0025 0.0301,-0.0041 0.04492,-0.0078 z m -0.210938,0.01172 c 0.01585,0.002 0.03121,0.0032 0.04687,0.0039 a 0.60006008,0.60006008 0 0 1 -0.04687,-0.0039 z" style="color:#000000;font-style:normal;font-variant:normal;font-weight:normal;font-stretch:normal;font-size:medium;line-height:normal;font-family:sans-serif;text-indent:0;text-align:start;text-decoration:none;text-decoration-line:none;text-decoration-style:solid;text-decoration-color:#000000;letter-spacing:normal;word-spacing:normal;text-transform:none;direction:ltr;block-progression:tb;writing-mode:lr-tb;baseline-shift:baseline;text-anchor:start;white-space:normal;clip-rule:nonzero;display:inline;overflow:visible;visibility:visible;opacity:1;isolation:auto;mix-blend-mode:normal;color-interpolation:sRGB;color-interpolation-filters:linearRGB;solid-color:#000000;solid-opacity:1;fill:#FFFFFF;fill-opacity:1;fill-rule:nonzero;stroke:none;stroke-width:1.20000005;stroke-linecap:round;stroke-linejoin:round;stroke-miterlimit:4;stroke-dasharray:none;stroke-dashoffset:0;stroke-opacity:1;color-rendering:auto;image-rendering:auto;shape-rendering:auto;text-rendering:auto;enable-background:accumulate"></path><path style="color:#000000;font-style:normal;font-variant:normal;font-weight:normal;font-stretch:normal;font-size:medium;line-height:normal;font-family:sans-serif;text-indent:0;text-align:start;text-decoration:none;text-decoration-line:none;text-decoration-style:solid;text-decoration-color:#000000;letter-spacing:normal;word-spacing:normal;text-transform:none;direction:ltr;block-progression:tb;writing-mode:lr-tb;baseline-shift:baseline;text-anchor:start;white-space:normal;clip-rule:nonzero;display:inline;overflow:visible;visibility:visible;opacity:1;isolation:auto;mix-blend-mode:normal;color-interpolation:sRGB;color-interpolation-filters:linearRGB;solid-color:#000000;solid-opacity:1;fill:#FFFFFF;fill-opacity:1;fill-rule:nonzero;stroke:none;stroke-width:1.20000005;stroke-linecap:round;stroke-linejoin:round;stroke-miterlimit:4;stroke-dasharray:none;stroke-dashoffset:0;stroke-opacity:1;color-rendering:auto;image-rendering:auto;shape-rendering:auto;text-rendering:auto;enable-background:accumulate" d="m 5.6464844,12.404297 c -1.2564309,1.2565 -1.2681534,3.300181 -0.017578,4.550781 2.8840024,2.884 7.6292576,7.631144 8.6503906,8.652344 0.0051,0.0053 0.01032,0.01051 0.01563,0.01563 0,0 0.110766,0.09299 0.363281,0.462891 0.104085,0.152222 0.234883,0.376056 0.371094,0.617187 l 0.873047,-0.873047 c -0.08524,-0.139795 -0.179642,-0.313234 -0.253906,-0.421875 -0.300296,-0.4392 -0.535157,-0.664062 -0.535157,-0.664062 -1.03204,-1.0321 -5.7576021,-5.757619 -8.6367183,-8.636719 -0.7900871,-0.790141 -0.785051,-2.04777 0.019531,-2.853516 z" transform="translate(0,1004.3622)"></path></g></g></svg>