<svg height='100px' width='100px'  fill="#FFFFFF" xmlns="http://www.w3.org/2000/svg" viewBox="0 0 64 64" x="0px" y="0px"><g><path d="M30,54H6v3a3.009,3.009,0,0,0,3,3H27a3.009,3.009,0,0,0,3-3ZM19,58H17V56h2Z"></path><path d="M11,34.69v2.99a11.064,11.064,0,0,0,7,10.25,11.064,11.064,0,0,0,7-10.25V34.69l-7-2.62Zm11.707,3.017-5,5a1,1,0,0,1-1.414,0l-3-3,1.414-1.414L17,40.586l4.293-4.293Z"></path><path d="M58,40V14H46v5a.992.992,0,0,1-.51.87A.947.947,0,0,1,45,20a1,1,0,0,1-.51-.14L40,17.17l-4.49,2.69A1,1,0,0,1,34,19V14H22v6h5a5,5,0,0,1,5,5V40Zm-4-8h2v6H54Zm-4,0h2v6H50Zm-4,0h2v6H46Zm-4,0h2v2H42Zm0,4h2v2H42Z"></path><path d="M30,28H6V52H30Zm-3,9.68a13.086,13.086,0,0,1-8.44,12.18l-.21.08a1.051,1.051,0,0,1-.7,0l-.21-.08A13.075,13.075,0,0,1,9,37.68V34a1.007,1.007,0,0,1,.65-.94l8-3a1.051,1.051,0,0,1,.7,0l8,3A1.007,1.007,0,0,1,27,34Z"></path><rect x="22" y="4" width="12" height="8"></rect><rect x="46" y="4" width="12" height="8"></rect><path d="M30,25a3.009,3.009,0,0,0-3-3H9a3.009,3.009,0,0,0-3,3v1H30Z"></path><path d="M39.49,15.14a1,1,0,0,1,1.02,0L44,17.23V4H36V17.23Z"></path></g></svg>