<svg height='100px' width='100px'  fill="#FFFFFF" xmlns="http://www.w3.org/2000/svg" viewBox="0 0 64 64" x="0px" y="0px"><g data-name="15-work life balance"><path d="M17.53906,30.8877a1.00212,1.00212,0,0,0,.92188,0C19.0542,30.5791,33,23.24463,33,15a7.73734,7.73734,0,0,0-8-8,7.81,7.81,0,0,0-7,3.64062A7.81,7.81,0,0,0,11,7a7.73734,7.73734,0,0,0-8,8C3,23.24463,16.9458,30.5791,17.53906,30.8877ZM11,9a5.84717,5.84717,0,0,1,6.05127,4.31641,1.00015,1.00015,0,0,0,1.89746,0A5.84717,5.84717,0,0,1,25,9a5.74059,5.74059,0,0,1,6,6c0,6.28418-10.63574,12.54785-13,13.86182C15.63574,27.54785,5,21.28418,5,15A5.74059,5.74059,0,0,1,11,9Z"></path><path d="M12,17a4.39834,4.39834,0,0,0,2.707-1.293A.9999.9999,0,0,0,13.2959,14.29,2.48662,2.48662,0,0,1,12,15a2.48579,2.48579,0,0,1-1.29492-.709A.99989.99989,0,0,0,9.293,15.707,4.39834,4.39834,0,0,0,12,17Z"></path><path d="M24,17a4.39834,4.39834,0,0,0,2.707-1.293A.9999.9999,0,0,0,25.2959,14.29,2.48662,2.48662,0,0,1,24,15a2.48271,2.48271,0,0,1-1.293-.707A.99989.99989,0,0,0,21.293,15.707,4.39834,4.39834,0,0,0,24,17Z"></path><path d="M12.293,20.293a.99962.99962,0,0,0,0,1.41406A8.64522,8.64522,0,0,0,18,24a8.64522,8.64522,0,0,0,5.707-2.293A.9999.9999,0,0,0,22.2959,20.29,6.7116,6.7116,0,0,1,18,22a6.70945,6.70945,0,0,1-4.29492-1.70947A.99949.99949,0,0,0,12.293,20.293Z"></path><rect x="17" width="2" height="2"></rect><rect x="17" y="34" width="2" height="2"></rect><rect x="4.97901" y="4.97935" width="2.00048" height="1.99979" transform="translate(-2.47669 5.97925) rotate(-45)"></rect><rect x="29.02051" y="29.02086" width="2.00048" height="1.99979" transform="translate(-12.435 30.02075) rotate(-45)"></rect><rect y="17" width="2" height="2"></rect><rect x="34" y="17" width="2" height="2"></rect><rect x="4.97935" y="29.02051" width="1.99979" height="2.00048" transform="translate(-19.4766 13.02084) rotate(-45)"></rect><rect x="29.02086" y="4.97901" width="1.99979" height="2.00048" transform="translate(4.56491 22.97916) rotate(-45)"></rect><path d="M46,39a7,7,0,1,0,7,7A7.00818,7.00818,0,0,0,46,39Zm0,12a5,5,0,1,1,5-5A5.00588,5.00588,0,0,1,46,51Z"></path><path d="M46,43a3,3,0,1,0,3,3A3.00328,3.00328,0,0,0,46,43Zm0,4a1,1,0,1,1,1-1A1.001,1.001,0,0,1,46,47Z"></path><path d="M59,43H56.35547a1.25247,1.25247,0,0,1-1.12744-.83691,1.226,1.226,0,0,1,.21631-1.36524l1.86914-1.86914a.99964.99964,0,0,0,0-1.41406l-2.82813-2.82813a.99964.99964,0,0,0-1.41406,0l-1.86963,1.86914a1.24008,1.24008,0,0,1-1.39648.20313A1.21983,1.21983,0,0,1,49,35.64453V33a1,1,0,0,0-1-1H44a1,1,0,0,0-1,1v2.64453a1.34451,1.34451,0,0,1-2.20166.91113l-1.86963-1.86914a.99964.99964,0,0,0-1.41406,0l-2.82813,2.82813a.99964.99964,0,0,0,0,1.41406l1.86914,1.86914A1.34452,1.34452,0,0,1,35.64453,43H33a.99974.99974,0,0,0-1,1v4a.99974.99974,0,0,0,1,1h2.64453a1.25247,1.25247,0,0,1,1.12744.83691,1.226,1.226,0,0,1-.21631,1.36524l-1.86914,1.86914a.99964.99964,0,0,0,0,1.41406l2.82813,2.82813a.99964.99964,0,0,0,1.41406,0l1.86914-1.86914a1.23878,1.23878,0,0,1,1.397-.20215A1.21957,1.21957,0,0,1,43,56.35547V59a.99974.99974,0,0,0,1,1h4a.99974.99974,0,0,0,1-1V56.35547a1.3448,1.3448,0,0,1,2.20215-.91113l1.86914,1.86914a.99964.99964,0,0,0,1.41406,0l2.82813-2.82813a.99964.99964,0,0,0,0-1.41406l-1.86914-1.86914A1.34452,1.34452,0,0,1,56.35547,49H59a.99974.99974,0,0,0,1-1V44A.99974.99974,0,0,0,59,43Zm-1,4H56.35547a3.33908,3.33908,0,0,0-2.3252,5.61621l1.16211,1.16211-1.41406,1.41406-1.16211-1.16211A3.339,3.339,0,0,0,47,56.35547V58H45V56.35547a3.33913,3.33913,0,0,0-5.61621-2.3252l-1.16211,1.16211-1.41406-1.41406,1.16211-1.16211A3.33888,3.33888,0,0,0,35.64453,47H34V45h1.64453a3.33908,3.33908,0,0,0,2.3252-5.61621l-1.16211-1.16211,1.41406-1.41406,1.1626,1.16211A3.33909,3.33909,0,0,0,45,35.64453V34h2v1.64453a3.33885,3.33885,0,0,0,5.61572,2.3252l1.1626-1.16211,1.41406,1.41406-1.16211,1.16211A3.33888,3.33888,0,0,0,56.35547,45H58Z"></path><path d="M31.56494,39.53125A16.1348,16.1348,0,0,1,35.99268,33.957l-1.252-1.56006A18.16232,18.16232,0,0,0,29.76123,38.666Z"></path><path d="M49.5127,30.8291l.4375-1.95117a18.2189,18.2189,0,0,0-8.00538.02344l.44922,1.94922A16.21355,16.21355,0,0,1,49.5127,30.8291Z"></path><path d="M57.17529,32.33105l-1.24218,1.56739a16.14939,16.14939,0,0,1,4.46044,5.54687l1.79786-.875A18.16009,18.16009,0,0,0,57.17529,32.33105Z"></path><path d="M49.57422,62.042l.44433,1.94922a18.03652,18.03652,0,0,0,7.21192-3.48144l-1.249-1.5625A16.02354,16.02354,0,0,1,49.57422,62.042Z"></path><path d="M34.79639,60.53223A18.05342,18.05342,0,0,0,42.01465,64l.44043-1.95117a16.04042,16.04042,0,0,1-6.41358-3.08106Z"></path><path d="M28,46.00391a17.83161,17.83161,0,0,0,1.79248,7.80371l1.79981-.8711A15.85427,15.85427,0,0,1,30,46Z"></path><path d="M64,46.00391a17.83161,17.83161,0,0,1-1.79248,7.80371l-1.79981-.8711A15.85427,15.85427,0,0,0,62,46Z"></path><path d="M47,13h1v1a1,1,0,0,0,2,0V13h1a1,1,0,0,0,0-2H50V10a1,1,0,0,0-2,0v1H47a1,1,0,0,0,0,2Z"></path><path d="M55,24h1v1a1,1,0,0,0,2,0V24h1a1,1,0,0,0,0-2H58V21a1,1,0,0,0-2,0v1H55a1,1,0,0,0,0,2Z"></path><path d="M10,42H9V41a1,1,0,0,0-2,0v1H6a1,1,0,0,0,0,2H7v1a1,1,0,0,0,2,0V44h1a1,1,0,0,0,0-2Z"></path><path d="M19,53H18V52a1,1,0,0,0-2,0v1H15a1,1,0,0,0,0,2h1v1a1,1,0,0,0,2,0V55h1a1,1,0,0,0,0-2Z"></path></g></svg>