<?xml version="1.0" encoding="UTF-8"?>
<svg width="288px" height="287px" viewBox="0 0 288 287" version="1.1" xmlns="http://www.w3.org/2000/svg" xmlns:xlink="http://www.w3.org/1999/xlink">
    <!-- Generator: Sketch 61.2 (89653) - https://sketch.com -->
    <title>Circle W-R</title>
    <desc>Created with Sketch.</desc>
    <defs>
        <polygon id="path-1" points="103.777896 37.9571779 18.7778963 160.7562 -1.13686838e-13 41.6475134 103.777896 -2.84217094e-14 217.17536 110.957178 124.084175 214.457178 46.7778963 183.957178 174.777896 110.957178 155.501658 59.3026591"></polygon>
    </defs>
    <g id="Page-1" stroke="none" stroke-width="1" fill="none" fill-rule="evenodd">
        <g id="Group-15" transform="translate(-747.000000, -1394.340000)">
            <g id="Circle-W-R" transform="translate(303.500000, 1283.340000)">
                <circle id="Oval" stroke="#FFFFFF" stroke-width="6" fill="#D33A3A" cx="587.5" cy="254.5" r="140.5"></circle>
                <g id="Standalone" transform="translate(491.800596, 137.000000)">
                    <g id="Group-11" transform="translate(0.921508, 0.542822)">
                        <mask id="mask-2" fill="white">
                            <use xlink:href="#path-1"></use>
                        </mask>
                        <g id="Path-2"></g>
                        <circle id="Oval" stroke="#FFFFFF" stroke-width="6" mask="url(#mask-2)" cx="95.0278963" cy="119.324186" r="68.75"></circle>
                    </g>
                    <g id="noun_Pen_1218673-Copy-28" transform="translate(41.067173, 49.000000)"></g>
                    <path d="M166.891152,92.2291667 L121.844383,49.78125 C120.738941,48.7395833 119.080778,48.7395833 117.975336,49.78125 L103.880948,63.0625 C102.775506,64.1041667 102.775506,65.6666667 103.880948,66.7083333 L108.026356,70.6145833 L64.0850297,100.5625 C63.5323086,100.822917 63.2559481,101.34375 62.9795875,101.864583 L41.9761862,164.104167 C41.6998256,165.145833 41.9761862,165.927083 42.5289073,166.708333 C43.0816284,167.229167 43.6343494,167.489583 44.4634311,167.489583 C44.7397916,167.489583 45.0161522,167.489583 45.2925127,167.489583 L111.342683,147.697917 C111.895404,147.4375 112.448125,147.177083 112.724485,146.65625 L144.505948,105.510417 L148.651356,109.416667 C149.204077,109.9375 149.756798,110.197917 150.58588,110.197917 C151.414962,110.197917 151.967683,109.9375 152.520404,109.416667 L166.614792,96.1354167 C167.996594,95.09375 167.996594,93.2708333 166.891152,92.2291667 Z M108.855438,142.75 L54.6887712,159.15625 L86.7465943,128.947917 C88.4047576,129.989583 90.3392814,130.510417 92.2738052,130.510417 C95.0374107,130.510417 97.5246556,129.46875 99.4591794,127.90625 C101.393703,126.083333 102.499145,123.479167 102.222785,120.875 C102.222785,118.270833 100.840982,115.666667 98.9064583,113.84375 C96.6955739,111.760417 93.9319685,110.71875 91.168363,110.71875 C88.4047576,110.71875 85.9175127,111.760417 83.9829889,113.322917 C80.6666624,116.447917 80.3903018,121.395833 82.6011862,125.302083 C80.0231835,127.889872 77.6957646,130.170783 75.6189295,132.144818 C75.47194,132.284532 76.8500312,125.523045 79.7532032,111.860356 L97.5723408,101.777836 C98.7493262,103.065822 100.290956,103.645831 101.393703,104.005077 C104.102053,104.611251 106.21015,104.61051 108.491857,103.895224 C110.865427,102.886061 112.643907,100.928624 113.42226,98.5414597 C114.246301,96.3175573 113.839158,93.6094799 112.643907,91.4545164 C111.319753,88.8621048 110.386987,88.1363639 107.803084,87.1768777 C105.273561,86.3829023 102.355722,86.5183156 100.034893,87.1768777 C96.0532622,89.0056267 94.2670695,92.9633374 94.7963399,97.273184 C81.2514284,104.553857 74.4548304,108.217141 74.4065459,108.263035 L69.2604265,137.747916 C66.8248922,140.062895 60.6779913,145.983729 50.8197236,155.510417 L68.2304379,104.46875 L111.895404,74.2604167 L140.913261,101.604167 L108.855438,142.75 Z M88.1283971,117.229167 C90.615642,115.40625 92.8265263,115.666667 95.0374107,117.489583 C96.9719345,119.3125 97.248295,121.395833 95.3137712,124 C93.6556079,125.5625 90.3392814,125.5625 88.4047576,123.739583 C86.4702338,121.916667 86.1938733,118.791667 88.1283971,117.229167 Z M100.612119,92.0786388 C103.099364,90.2557222 105.310248,90.5161388 107.521133,92.3390555 C109.455657,94.1619722 109.732017,96.2453055 107.797493,98.8494722 C106.13933,100.411972 102.823004,100.411972 100.88848,98.5890555 C98.9539559,96.7661388 98.6775954,93.6411388 100.612119,92.0786388 Z M150.862241,103.6875 L146.440472,99.5208333 L114.106288,69.0520833 L109.68452,64.8854167 L119.90986,55.25 L161.087581,94.0520833 L150.862241,103.6875 Z" id="Shape" fill="#FFFFFF" fill-rule="nonzero"></path>
                </g>
                <g id="Group-13" transform="translate(350.800596, 286.500000) scale(-1, -1) translate(-350.800596, -286.500000) translate(0.800596, 19.000000)">
                    <circle id="Oval-Copy" transform="translate(112.300596, 297.500000) scale(1, -1) translate(-112.300596, -297.500000) " cx="112.300596" cy="297.5" r="92.5"></circle>
                    <text id="Medium-Workers" font-family="Archivo-Bold, Archivo" font-size="41" font-weight="bold" letter-spacing="-2.123507" fill="#FFFFFF">
                        <tspan x="164.576535" y="36">MEDIUM  WORKERS</tspan>
                    </text>
                </g>
                <g id="Group-13-Copy" transform="translate(473.000000, 0.000000)">
                    <path d="M119.5,380 C53.5019724,380 0,326.498028 0,260.5 C0,194.501972 53.5019724,141 119.5,141 C185.498028,141 239,194.501972 239,260.5 C239,326.498028 185.498028,380 119.5,380 Z" id="Oval-Copy" transform="translate(119.500000, 260.500000) scale(1, -1) translate(-119.500000, -260.500000) "></path>
                    <text id="Union" font-family="Archivo-Bold, Archivo" font-size="41" font-weight="bold" letter-spacing="5.376493" fill="#FFFFFF">
                        <tspan x="274.507767" y="36">UNION</tspan>
                    </text>
                </g>
            </g>
        </g>
    </g>
</svg>